<?xml version="1.0" encoding="UTF-8" standalone="no"?>
<!DOCTYPE svg PUBLIC "-//W3C//DTD SVG 1.1//EN"
 "http://www.w3.org/Graphics/SVG/1.1/DTD/svg11.dtd">
<!-- Generated by graphviz version 2.47.0 (20210316.0004)
 -->
<!-- Title: dependencies Pages: 1 -->
<svg width="3635pt" height="284pt"
 viewBox="0.00 0.00 3635.00 284.00" xmlns="http://www.w3.org/2000/svg" xmlns:xlink="http://www.w3.org/1999/xlink">
<g id="graph0" class="graph" transform="scale(1 1) rotate(0) translate(4 280)">
<title>dependencies</title>
<polygon fill="white" stroke="transparent" points="-4,4 -4,-280 3631,-280 3631,4 -4,4"/>
<text text-anchor="start" x="1792.51" y="-42.4" font-family="Times-12" font-weight="bold" font-size="14.00">Legend</text>
<polygon fill="#ffffb3" stroke="transparent" points="1579.5,-10 1579.5,-30 1599.5,-30 1599.5,-10 1579.5,-10"/>
<text text-anchor="start" x="1603.13" y="-15.4" font-family="Times-12" font-size="14.00"> &#160;Declarations</text>
<polygon fill="#8dd3c7" stroke="transparent" points="1692.5,-10 1692.5,-30 1712.5,-30 1712.5,-10 1692.5,-10"/>
<text text-anchor="start" x="1716.23" y="-15.4" font-family="Times-12" font-size="14.00"> &#160;Module</text>
<polygon fill="#80b1d3" stroke="transparent" points="1778.5,-10 1778.5,-30 1798.5,-30 1798.5,-10 1778.5,-10"/>
<text text-anchor="start" x="1802.28" y="-15.4" font-family="Times-12" font-size="14.00"> &#160;Bootstrap</text>
<polygon fill="#fdb462" stroke="transparent" points="1875.5,-10 1875.5,-30 1895.5,-30 1895.5,-10 1875.5,-10"/>
<text text-anchor="start" x="1899.17" y="-15.4" font-family="Times-12" font-size="14.00"> &#160;Providers</text>
<polygon fill="#fb8072" stroke="transparent" points="1971.5,-10 1971.5,-30 1991.5,-30 1991.5,-10 1971.5,-10"/>
<text text-anchor="start" x="1995.23" y="-15.4" font-family="Times-12" font-size="14.00"> &#160;Exports</text>
<g id="clust1" class="cluster">
<title>cluster_AppModule</title>
<polygon fill="none" stroke="black" stroke-dasharray="1,5" points="8,-70 8,-268 3619,-268 3619,-70 8,-70"/>
</g>
<g id="clust24" class="cluster">
<title>cluster_AppModule_imports</title>
<polygon fill="none" stroke="black" points="3467,-78 3467,-130 3611,-130 3611,-78 3467,-78"/>
</g>
<g id="clust26" class="cluster">
<title>cluster_AppModule_bootstrap</title>
<polygon fill="none" stroke="black" points="1711,-208 1711,-260 1835,-260 1835,-208 1711,-208"/>
</g>
<g id="clust27" class="cluster">
<title>cluster_AppModule_providers</title>
<polygon fill="none" stroke="black" points="3067,-78 3067,-130 3459,-130 3459,-78 3067,-78"/>
</g>
<g id="clust2" class="cluster">
<title>cluster_AppModule_declarations</title>
<polygon fill="none" stroke="black" points="16,-78 16,-130 3059,-130 3059,-78 16,-78"/>
</g>
<!-- AddTitlePipe -->
<g id="node1" class="node">
<title>AddTitlePipe</title>
<polygon fill="#ffffb3" stroke="black" points="3050.93,-122 2959.07,-122 2959.07,-86 3050.93,-86 3050.93,-122"/>
<text text-anchor="middle" x="3005" y="-99.8" font-family="Times,serif" font-size="14.00">AddTitlePipe</text>
</g>
<!-- AppModule -->
<g id="node22" class="node">
<title>AppModule</title>
<polygon fill="#8dd3c7" stroke="black" points="1814.66,-187 1811.66,-191 1790.66,-191 1787.66,-187 1731.34,-187 1731.34,-151 1814.66,-151 1814.66,-187"/>
<text text-anchor="middle" x="1773" y="-164.8" font-family="Times,serif" font-size="14.00">AppModule</text>
</g>
<!-- AddTitlePipe&#45;&gt;AppModule -->
<g id="edge1" class="edge">
<title>AddTitlePipe&#45;&gt;AppModule</title>
<path fill="none" stroke="black" d="M3005,-122.28C3005,-143.32 3005,-175 3005,-175 3005,-175 1824.7,-175 1824.7,-175"/>
<polygon fill="black" stroke="black" points="1824.7,-171.5 1814.7,-175 1824.7,-178.5 1824.7,-171.5"/>
</g>
<!-- AppComponent -->
<g id="node2" class="node">
<title>AppComponent</title>
<polygon fill="#ffffb3" stroke="black" points="2941.94,-122 2836.06,-122 2836.06,-86 2941.94,-86 2941.94,-122"/>
<text text-anchor="middle" x="2889" y="-99.8" font-family="Times,serif" font-size="14.00">AppComponent</text>
</g>
<!-- AppComponent&#45;&gt;AppModule -->
<g id="edge2" class="edge">
<title>AppComponent&#45;&gt;AppModule</title>
<path fill="none" stroke="black" d="M2889,-122.22C2889,-142.37 2889,-172 2889,-172 2889,-172 1824.71,-172 1824.71,-172"/>
<polygon fill="black" stroke="black" points="1824.71,-168.5 1814.71,-172 1824.71,-175.5 1824.71,-168.5"/>
</g>
<!-- BrandsComponent -->
<g id="node3" class="node">
<title>BrandsComponent</title>
<polygon fill="#ffffb3" stroke="black" points="2818.49,-122 2697.51,-122 2697.51,-86 2818.49,-86 2818.49,-122"/>
<text text-anchor="middle" x="2758" y="-99.8" font-family="Times,serif" font-size="14.00">BrandsComponent</text>
</g>
<!-- BrandsComponent&#45;&gt;AppModule -->
<g id="edge3" class="edge">
<title>BrandsComponent&#45;&gt;AppModule</title>
<path fill="none" stroke="black" d="M2758,-122.11C2758,-141.34 2758,-169 2758,-169 2758,-169 1824.7,-169 1824.7,-169"/>
<polygon fill="black" stroke="black" points="1824.7,-165.5 1814.7,-169 1824.7,-172.5 1824.7,-165.5"/>
</g>
<!-- CategoriesComponent -->
<g id="node4" class="node">
<title>CategoriesComponent</title>
<polygon fill="#ffffb3" stroke="black" points="2679.7,-122 2538.3,-122 2538.3,-86 2679.7,-86 2679.7,-122"/>
<text text-anchor="middle" x="2609" y="-99.8" font-family="Times,serif" font-size="14.00">CategoriesComponent</text>
</g>
<!-- CategoriesComponent&#45;&gt;AppModule -->
<g id="edge4" class="edge">
<title>CategoriesComponent&#45;&gt;AppModule</title>
<path fill="none" stroke="black" d="M2609,-122.27C2609,-140.56 2609,-166 2609,-166 2609,-166 1824.74,-166 1824.74,-166"/>
<polygon fill="black" stroke="black" points="1824.74,-162.5 1814.74,-166 1824.74,-169.5 1824.74,-162.5"/>
</g>
<!-- CheckoutComponent -->
<g id="node5" class="node">
<title>CheckoutComponent</title>
<polygon fill="#ffffb3" stroke="black" points="2520.49,-122 2385.51,-122 2385.51,-86 2520.49,-86 2520.49,-122"/>
<text text-anchor="middle" x="2453" y="-99.8" font-family="Times,serif" font-size="14.00">CheckoutComponent</text>
</g>
<!-- CheckoutComponent&#45;&gt;AppModule -->
<g id="edge5" class="edge">
<title>CheckoutComponent&#45;&gt;AppModule</title>
<path fill="none" stroke="black" d="M2453,-122.02C2453,-139.37 2453,-163 2453,-163 2453,-163 1824.77,-163 1824.77,-163"/>
<polygon fill="black" stroke="black" points="1824.77,-159.5 1814.77,-163 1824.77,-166.5 1824.77,-159.5"/>
</g>
<!-- FooterComponent -->
<g id="node6" class="node">
<title>FooterComponent</title>
<polygon fill="#ffffb3" stroke="black" points="2367.88,-122 2250.12,-122 2250.12,-86 2367.88,-86 2367.88,-122"/>
<text text-anchor="middle" x="2309" y="-99.8" font-family="Times,serif" font-size="14.00">FooterComponent</text>
</g>
<!-- FooterComponent&#45;&gt;AppModule -->
<g id="edge6" class="edge">
<title>FooterComponent&#45;&gt;AppModule</title>
<path fill="none" stroke="black" d="M2309,-122.03C2309,-138.4 2309,-160 2309,-160 2309,-160 1825.06,-160 1825.06,-160"/>
<polygon fill="black" stroke="black" points="1825.06,-156.5 1815.06,-160 1825.06,-163.5 1825.06,-156.5"/>
</g>
<!-- ForgotPasswordComponent -->
<g id="node7" class="node">
<title>ForgotPasswordComponent</title>
<polygon fill="#ffffb3" stroke="black" points="2232.32,-122 2059.68,-122 2059.68,-86 2232.32,-86 2232.32,-122"/>
<text text-anchor="middle" x="2146" y="-99.8" font-family="Times,serif" font-size="14.00">ForgotPasswordComponent</text>
</g>
<!-- ForgotPasswordComponent&#45;&gt;AppModule -->
<g id="edge7" class="edge">
<title>ForgotPasswordComponent&#45;&gt;AppModule</title>
<path fill="none" stroke="black" d="M2146,-122.24C2146,-137.57 2146,-157 2146,-157 2146,-157 1824.7,-157 1824.7,-157"/>
<polygon fill="black" stroke="black" points="1824.7,-153.5 1814.7,-157 1824.7,-160.5 1824.7,-153.5"/>
</g>
<!-- HomeComponent -->
<g id="node8" class="node">
<title>HomeComponent</title>
<polygon fill="#ffffb3" stroke="black" points="2041.55,-122 1926.45,-122 1926.45,-86 2041.55,-86 2041.55,-122"/>
<text text-anchor="middle" x="1984" y="-99.8" font-family="Times,serif" font-size="14.00">HomeComponent</text>
</g>
<!-- HomeComponent&#45;&gt;AppModule -->
<g id="edge8" class="edge">
<title>HomeComponent&#45;&gt;AppModule</title>
<path fill="none" stroke="black" d="M1984,-122.05C1984,-136.37 1984,-154 1984,-154 1984,-154 1824.69,-154 1824.69,-154"/>
<polygon fill="black" stroke="black" points="1824.69,-150.5 1814.69,-154 1824.69,-157.5 1824.69,-150.5"/>
</g>
<!-- LoaderComponent -->
<g id="node9" class="node">
<title>LoaderComponent</title>
<polygon fill="#ffffb3" stroke="black" points="1908.47,-122 1787.53,-122 1787.53,-86 1908.47,-86 1908.47,-122"/>
<text text-anchor="middle" x="1848" y="-99.8" font-family="Times,serif" font-size="14.00">LoaderComponent</text>
</g>
<!-- LoaderComponent&#45;&gt;AppModule -->
<g id="edge9" class="edge">
<title>LoaderComponent&#45;&gt;AppModule</title>
<path fill="none" stroke="black" d="M1801.17,-122.11C1801.17,-122.11 1801.17,-140.99 1801.17,-140.99"/>
<polygon fill="black" stroke="black" points="1797.67,-140.99 1801.17,-150.99 1804.67,-140.99 1797.67,-140.99"/>
</g>
<!-- MainsliderComponent -->
<g id="node10" class="node">
<title>MainsliderComponent</title>
<polygon fill="#ffffb3" stroke="black" points="1769.98,-122 1628.02,-122 1628.02,-86 1769.98,-86 1769.98,-122"/>
<text text-anchor="middle" x="1699" y="-99.8" font-family="Times,serif" font-size="14.00">MainsliderComponent</text>
</g>
<!-- MainsliderComponent&#45;&gt;AppModule -->
<g id="edge10" class="edge">
<title>MainsliderComponent&#45;&gt;AppModule</title>
<path fill="none" stroke="black" d="M1750.58,-122.11C1750.58,-122.11 1750.58,-140.99 1750.58,-140.99"/>
<polygon fill="black" stroke="black" points="1747.08,-140.99 1750.58,-150.99 1754.08,-140.99 1747.08,-140.99"/>
</g>
<!-- MycartComponent -->
<g id="node11" class="node">
<title>MycartComponent</title>
<polygon fill="#ffffb3" stroke="black" points="1609.76,-122 1488.24,-122 1488.24,-86 1609.76,-86 1609.76,-122"/>
<text text-anchor="middle" x="1549" y="-99.8" font-family="Times,serif" font-size="14.00">MycartComponent</text>
</g>
<!-- MycartComponent&#45;&gt;AppModule -->
<g id="edge11" class="edge">
<title>MycartComponent&#45;&gt;AppModule</title>
<path fill="none" stroke="black" d="M1549,-122.05C1549,-136.37 1549,-154 1549,-154 1549,-154 1721.13,-154 1721.13,-154"/>
<polygon fill="black" stroke="black" points="1721.13,-157.5 1731.13,-154 1721.13,-150.5 1721.13,-157.5"/>
</g>
<!-- NavbarComponent -->
<g id="node12" class="node">
<title>NavbarComponent</title>
<polygon fill="#ffffb3" stroke="black" points="1470.03,-122 1347.97,-122 1347.97,-86 1470.03,-86 1470.03,-122"/>
<text text-anchor="middle" x="1409" y="-99.8" font-family="Times,serif" font-size="14.00">NavbarComponent</text>
</g>
<!-- NavbarComponent&#45;&gt;AppModule -->
<g id="edge12" class="edge">
<title>NavbarComponent&#45;&gt;AppModule</title>
<path fill="none" stroke="black" d="M1409,-122.24C1409,-137.57 1409,-157 1409,-157 1409,-157 1721.24,-157 1721.24,-157"/>
<polygon fill="black" stroke="black" points="1721.24,-160.5 1731.24,-157 1721.24,-153.5 1721.24,-160.5"/>
</g>
<!-- NotfoundComponent -->
<g id="node13" class="node">
<title>NotfoundComponent</title>
<polygon fill="#ffffb3" stroke="black" points="1329.49,-122 1194.51,-122 1194.51,-86 1329.49,-86 1329.49,-122"/>
<text text-anchor="middle" x="1262" y="-99.8" font-family="Times,serif" font-size="14.00">NotfoundComponent</text>
</g>
<!-- NotfoundComponent&#45;&gt;AppModule -->
<g id="edge13" class="edge">
<title>NotfoundComponent&#45;&gt;AppModule</title>
<path fill="none" stroke="black" d="M1262,-122.03C1262,-138.4 1262,-160 1262,-160 1262,-160 1721.18,-160 1721.18,-160"/>
<polygon fill="black" stroke="black" points="1721.18,-163.5 1731.18,-160 1721.18,-156.5 1721.18,-163.5"/>
</g>
<!-- ProductDetailsComponent -->
<g id="node14" class="node">
<title>ProductDetailsComponent</title>
<polygon fill="#ffffb3" stroke="black" points="1176.03,-122 1011.97,-122 1011.97,-86 1176.03,-86 1176.03,-122"/>
<text text-anchor="middle" x="1094" y="-99.8" font-family="Times,serif" font-size="14.00">ProductDetailsComponent</text>
</g>
<!-- ProductDetailsComponent&#45;&gt;AppModule -->
<g id="edge14" class="edge">
<title>ProductDetailsComponent&#45;&gt;AppModule</title>
<path fill="none" stroke="black" d="M1094,-122.02C1094,-139.37 1094,-163 1094,-163 1094,-163 1721.29,-163 1721.29,-163"/>
<polygon fill="black" stroke="black" points="1721.29,-166.5 1731.29,-163 1721.29,-159.5 1721.29,-166.5"/>
</g>
<!-- ProductsComponent -->
<g id="node15" class="node">
<title>ProductsComponent</title>
<polygon fill="#ffffb3" stroke="black" points="994.33,-122 863.67,-122 863.67,-86 994.33,-86 994.33,-122"/>
<text text-anchor="middle" x="929" y="-99.8" font-family="Times,serif" font-size="14.00">ProductsComponent</text>
</g>
<!-- ProductsComponent&#45;&gt;AppModule -->
<g id="edge15" class="edge">
<title>ProductsComponent&#45;&gt;AppModule</title>
<path fill="none" stroke="black" d="M929,-122.27C929,-140.56 929,-166 929,-166 929,-166 1721.15,-166 1721.15,-166"/>
<polygon fill="black" stroke="black" points="1721.15,-169.5 1731.15,-166 1721.15,-162.5 1721.15,-169.5"/>
</g>
<!-- ProfileComponent -->
<g id="node16" class="node">
<title>ProfileComponent</title>
<polygon fill="#ffffb3" stroke="black" points="845.93,-122 726.07,-122 726.07,-86 845.93,-86 845.93,-122"/>
<text text-anchor="middle" x="786" y="-99.8" font-family="Times,serif" font-size="14.00">ProfileComponent</text>
</g>
<!-- ProfileComponent&#45;&gt;AppModule -->
<g id="edge16" class="edge">
<title>ProfileComponent&#45;&gt;AppModule</title>
<path fill="none" stroke="black" d="M786,-122.11C786,-141.34 786,-169 786,-169 786,-169 1721.22,-169 1721.22,-169"/>
<polygon fill="black" stroke="black" points="1721.22,-172.5 1731.22,-169 1721.22,-165.5 1721.22,-172.5"/>
</g>
<!-- ResetPasswordComponent -->
<g id="node17" class="node">
<title>ResetPasswordComponent</title>
<polygon fill="#ffffb3" stroke="black" points="708.09,-122 541.91,-122 541.91,-86 708.09,-86 708.09,-122"/>
<text text-anchor="middle" x="625" y="-99.8" font-family="Times,serif" font-size="14.00">ResetPasswordComponent</text>
</g>
<!-- ResetPasswordComponent&#45;&gt;AppModule -->
<g id="edge17" class="edge">
<title>ResetPasswordComponent&#45;&gt;AppModule</title>
<path fill="none" stroke="black" d="M625,-122.22C625,-142.37 625,-172 625,-172 625,-172 1721.12,-172 1721.12,-172"/>
<polygon fill="black" stroke="black" points="1721.12,-175.5 1731.12,-172 1721.12,-168.5 1721.12,-175.5"/>
</g>
<!-- SearchPipe -->
<g id="node18" class="node">
<title>SearchPipe</title>
<polygon fill="#ffffb3" stroke="black" points="523.47,-122 444.53,-122 444.53,-86 523.47,-86 523.47,-122"/>
<text text-anchor="middle" x="484" y="-99.8" font-family="Times,serif" font-size="14.00">SearchPipe</text>
</g>
<!-- SearchPipe&#45;&gt;AppModule -->
<g id="edge18" class="edge">
<title>SearchPipe&#45;&gt;AppModule</title>
<path fill="none" stroke="black" d="M484,-122.28C484,-143.32 484,-175 484,-175 484,-175 1721.21,-175 1721.21,-175"/>
<polygon fill="black" stroke="black" points="1721.21,-178.5 1731.21,-175 1721.21,-171.5 1721.21,-178.5"/>
</g>
<!-- SigninComponent -->
<g id="node19" class="node">
<title>SigninComponent</title>
<polygon fill="#ffffb3" stroke="black" points="426.9,-122 309.1,-122 309.1,-86 426.9,-86 426.9,-122"/>
<text text-anchor="middle" x="368" y="-99.8" font-family="Times,serif" font-size="14.00">SigninComponent</text>
</g>
<!-- SigninComponent&#45;&gt;AppModule -->
<g id="edge19" class="edge">
<title>SigninComponent&#45;&gt;AppModule</title>
<path fill="none" stroke="black" d="M368,-122.29C368,-144.21 368,-178 368,-178 368,-178 1721.33,-178 1721.33,-178"/>
<polygon fill="black" stroke="black" points="1721.33,-181.5 1731.33,-178 1721.33,-174.5 1721.33,-181.5"/>
</g>
<!-- SignupComponent -->
<g id="node20" class="node">
<title>SignupComponent</title>
<polygon fill="#ffffb3" stroke="black" points="291.51,-122 170.49,-122 170.49,-86 291.51,-86 291.51,-122"/>
<text text-anchor="middle" x="231" y="-99.8" font-family="Times,serif" font-size="14.00">SignupComponent</text>
</g>
<!-- SignupComponent&#45;&gt;AppModule -->
<g id="edge20" class="edge">
<title>SignupComponent&#45;&gt;AppModule</title>
<path fill="none" stroke="black" d="M231,-122.25C231,-145.02 231,-181 231,-181 231,-181 1720.96,-181 1720.96,-181"/>
<polygon fill="black" stroke="black" points="1720.96,-184.5 1730.96,-181 1720.96,-177.5 1720.96,-184.5"/>
</g>
<!-- WishlistComponent -->
<g id="node21" class="node">
<title>WishlistComponent</title>
<polygon fill="#ffffb3" stroke="black" points="152,-122 24,-122 24,-86 152,-86 152,-122"/>
<text text-anchor="middle" x="88" y="-99.8" font-family="Times,serif" font-size="14.00">WishlistComponent</text>
</g>
<!-- WishlistComponent&#45;&gt;AppModule -->
<g id="edge21" class="edge">
<title>WishlistComponent&#45;&gt;AppModule</title>
<path fill="none" stroke="black" d="M88,-122.15C88,-145.76 88,-184 88,-184 88,-184 1720.93,-184 1720.93,-184"/>
<polygon fill="black" stroke="black" points="1720.93,-187.5 1730.93,-184 1720.93,-180.5 1720.93,-187.5"/>
</g>
<!-- AppComponent  -->
<g id="node24" class="node">
<title>AppComponent </title>
<polygon fill="#80b1d3" stroke="black" points="1827.44,-252 1718.56,-252 1718.56,-216 1827.44,-216 1827.44,-252"/>
<text text-anchor="middle" x="1773" y="-229.8" font-family="Times,serif" font-size="14.00">AppComponent </text>
</g>
<!-- AppModule&#45;&gt;AppComponent  -->
<g id="edge23" class="edge">
<title>AppModule&#45;&gt;AppComponent </title>
<path fill="none" stroke="black" stroke-dasharray="1,5" d="M1773,-187.11C1773,-187.11 1773,-205.99 1773,-205.99"/>
<polygon fill="black" stroke="black" points="1769.5,-205.99 1773,-215.99 1776.5,-205.99 1769.5,-205.99"/>
</g>
<!-- AppRoutingModule -->
<g id="node23" class="node">
<title>AppRoutingModule</title>
<polygon fill="#8dd3c7" stroke="black" points="3603.27,-122 3600.27,-126 3579.27,-126 3576.27,-122 3474.73,-122 3474.73,-86 3603.27,-86 3603.27,-122"/>
<text text-anchor="middle" x="3539" y="-99.8" font-family="Times,serif" font-size="14.00">AppRoutingModule</text>
</g>
<!-- AppRoutingModule&#45;&gt;AppModule -->
<g id="edge22" class="edge">
<title>AppRoutingModule&#45;&gt;AppModule</title>
<path fill="none" stroke="black" d="M3539,-122.15C3539,-145.76 3539,-184 3539,-184 3539,-184 1824.91,-184 1824.91,-184"/>
<polygon fill="black" stroke="black" points="1824.91,-180.5 1814.91,-184 1824.91,-187.5 1824.91,-180.5"/>
</g>
<!-- AddHeaderInterceptor -->
<g id="node25" class="node">
<title>AddHeaderInterceptor</title>
<ellipse fill="#fdb462" stroke="black" cx="3353" cy="-104" rx="97.79" ry="18"/>
<text text-anchor="middle" x="3353" y="-99.8" font-family="Times,serif" font-size="14.00">AddHeaderInterceptor</text>
</g>
<!-- AddHeaderInterceptor&#45;&gt;AppModule -->
<g id="edge24" class="edge">
<title>AddHeaderInterceptor&#45;&gt;AppModule</title>
<path fill="none" stroke="black" d="M3353,-122.25C3353,-145.02 3353,-181 3353,-181 3353,-181 1824.85,-181 1824.85,-181"/>
<polygon fill="black" stroke="black" points="1824.85,-177.5 1814.85,-181 1824.85,-184.5 1824.85,-177.5"/>
</g>
<!-- LoaderInterceptor -->
<g id="node26" class="node">
<title>LoaderInterceptor</title>
<ellipse fill="#fdb462" stroke="black" cx="3156" cy="-104" rx="80.98" ry="18"/>
<text text-anchor="middle" x="3156" y="-99.8" font-family="Times,serif" font-size="14.00">LoaderInterceptor</text>
</g>
<!-- LoaderInterceptor&#45;&gt;AppModule -->
<g id="edge25" class="edge">
<title>LoaderInterceptor&#45;&gt;AppModule</title>
<path fill="none" stroke="black" d="M3156,-122.29C3156,-144.21 3156,-178 3156,-178 3156,-178 1824.77,-178 1824.77,-178"/>
<polygon fill="black" stroke="black" points="1824.77,-174.5 1814.77,-178 1824.77,-181.5 1824.77,-174.5"/>
</g>
</g>
</svg>
