<?xml version="1.0" encoding="UTF-8" standalone="no"?>
<!DOCTYPE svg PUBLIC "-//W3C//DTD SVG 1.1//EN"
 "http://www.w3.org/Graphics/SVG/1.1/DTD/svg11.dtd">
<!-- Generated by graphviz version 2.47.0 (20210316.0004)
 -->
<!-- Title: dependencies Pages: 1 -->
<svg width="4027pt" height="284pt"
 viewBox="0.00 0.00 4027.00 284.00" xmlns="http://www.w3.org/2000/svg" xmlns:xlink="http://www.w3.org/1999/xlink">
<g id="graph0" class="graph" transform="scale(1 1) rotate(0) translate(4 280)">
<title>dependencies</title>
<polygon fill="white" stroke="transparent" points="-4,4 -4,-280 4023,-280 4023,4 -4,4"/>
<text text-anchor="start" x="1988.51" y="-42.4" font-family="Times-12" font-weight="bold" font-size="14.00">Legend</text>
<polygon fill="#ffffb3" stroke="transparent" points="1775.5,-10 1775.5,-30 1795.5,-30 1795.5,-10 1775.5,-10"/>
<text text-anchor="start" x="1799.13" y="-15.4" font-family="Times-12" font-size="14.00"> &#160;Declarations</text>
<polygon fill="#8dd3c7" stroke="transparent" points="1888.5,-10 1888.5,-30 1908.5,-30 1908.5,-10 1888.5,-10"/>
<text text-anchor="start" x="1912.23" y="-15.4" font-family="Times-12" font-size="14.00"> &#160;Module</text>
<polygon fill="#80b1d3" stroke="transparent" points="1974.5,-10 1974.5,-30 1994.5,-30 1994.5,-10 1974.5,-10"/>
<text text-anchor="start" x="1998.28" y="-15.4" font-family="Times-12" font-size="14.00"> &#160;Bootstrap</text>
<polygon fill="#fdb462" stroke="transparent" points="2071.5,-10 2071.5,-30 2091.5,-30 2091.5,-10 2071.5,-10"/>
<text text-anchor="start" x="2095.17" y="-15.4" font-family="Times-12" font-size="14.00"> &#160;Providers</text>
<polygon fill="#fb8072" stroke="transparent" points="2167.5,-10 2167.5,-30 2187.5,-30 2187.5,-10 2167.5,-10"/>
<text text-anchor="start" x="2191.23" y="-15.4" font-family="Times-12" font-size="14.00"> &#160;Exports</text>
<g id="clust1" class="cluster">
<title>cluster_AppModule</title>
<polygon fill="none" stroke="black" stroke-dasharray="1,5" points="8,-70 8,-268 3619,-268 3619,-70 8,-70"/>
</g>
<g id="clust2" class="cluster">
<title>cluster_AppModule_declarations</title>
<polygon fill="none" stroke="black" points="568,-78 568,-130 3611,-130 3611,-78 568,-78"/>
</g>
<g id="clust24" class="cluster">
<title>cluster_AppModule_imports</title>
<polygon fill="none" stroke="black" points="416,-78 416,-130 560,-130 560,-78 416,-78"/>
</g>
<g id="clust26" class="cluster">
<title>cluster_AppModule_bootstrap</title>
<polygon fill="none" stroke="black" points="1825,-208 1825,-260 1949,-260 1949,-208 1825,-208"/>
</g>
<g id="clust27" class="cluster">
<title>cluster_AppModule_providers</title>
<polygon fill="none" stroke="black" points="16,-78 16,-130 408,-130 408,-78 16,-78"/>
</g>
<g id="clust34" class="cluster">
<title>cluster_SettingsModule</title>
<polygon fill="none" stroke="black" stroke-dasharray="1,5" points="3627,-70 3627,-195 4011,-195 4011,-70 3627,-70"/>
</g>
<g id="clust35" class="cluster">
<title>cluster_SettingsModule_declarations</title>
<polygon fill="none" stroke="black" points="3809,-78 3809,-130 4003,-130 4003,-78 3809,-78"/>
</g>
<g id="clust37" class="cluster">
<title>cluster_SettingsModule_imports</title>
<polygon fill="none" stroke="black" points="3635,-78 3635,-130 3801,-130 3801,-78 3635,-78"/>
</g>
<!-- AddTitlePipe -->
<g id="node1" class="node">
<title>AddTitlePipe</title>
<polygon fill="#ffffb3" stroke="black" points="3602.93,-122 3511.07,-122 3511.07,-86 3602.93,-86 3602.93,-122"/>
<text text-anchor="middle" x="3557" y="-99.8" font-family="Times,serif" font-size="14.00">AddTitlePipe</text>
</g>
<!-- AppModule -->
<g id="node22" class="node">
<title>AppModule</title>
<polygon fill="#8dd3c7" stroke="black" points="1928.66,-187 1925.66,-191 1904.66,-191 1901.66,-187 1845.34,-187 1845.34,-151 1928.66,-151 1928.66,-187"/>
<text text-anchor="middle" x="1887" y="-164.8" font-family="Times,serif" font-size="14.00">AppModule</text>
</g>
<!-- AddTitlePipe&#45;&gt;AppModule -->
<g id="edge1" class="edge">
<title>AddTitlePipe&#45;&gt;AppModule</title>
<path fill="none" stroke="black" d="M3557,-122.15C3557,-145.76 3557,-184 3557,-184 3557,-184 1938.7,-184 1938.7,-184"/>
<polygon fill="black" stroke="black" points="1938.7,-180.5 1928.7,-184 1938.7,-187.5 1938.7,-180.5"/>
</g>
<!-- AppComponent -->
<g id="node2" class="node">
<title>AppComponent</title>
<polygon fill="#ffffb3" stroke="black" points="3493.94,-122 3388.06,-122 3388.06,-86 3493.94,-86 3493.94,-122"/>
<text text-anchor="middle" x="3441" y="-99.8" font-family="Times,serif" font-size="14.00">AppComponent</text>
</g>
<!-- AppComponent&#45;&gt;AppModule -->
<g id="edge2" class="edge">
<title>AppComponent&#45;&gt;AppModule</title>
<path fill="none" stroke="black" d="M3441,-122.25C3441,-145.02 3441,-181 3441,-181 3441,-181 1938.97,-181 1938.97,-181"/>
<polygon fill="black" stroke="black" points="1938.97,-177.5 1928.97,-181 1938.97,-184.5 1938.97,-177.5"/>
</g>
<!-- BrandsComponent -->
<g id="node3" class="node">
<title>BrandsComponent</title>
<polygon fill="#ffffb3" stroke="black" points="3370.49,-122 3249.51,-122 3249.51,-86 3370.49,-86 3370.49,-122"/>
<text text-anchor="middle" x="3310" y="-99.8" font-family="Times,serif" font-size="14.00">BrandsComponent</text>
</g>
<!-- BrandsComponent&#45;&gt;AppModule -->
<g id="edge3" class="edge">
<title>BrandsComponent&#45;&gt;AppModule</title>
<path fill="none" stroke="black" d="M3310,-122.29C3310,-144.21 3310,-178 3310,-178 3310,-178 1938.82,-178 1938.82,-178"/>
<polygon fill="black" stroke="black" points="1938.82,-174.5 1928.82,-178 1938.82,-181.5 1938.82,-174.5"/>
</g>
<!-- CategoriesComponent -->
<g id="node4" class="node">
<title>CategoriesComponent</title>
<polygon fill="#ffffb3" stroke="black" points="3231.7,-122 3090.3,-122 3090.3,-86 3231.7,-86 3231.7,-122"/>
<text text-anchor="middle" x="3161" y="-99.8" font-family="Times,serif" font-size="14.00">CategoriesComponent</text>
</g>
<!-- CategoriesComponent&#45;&gt;AppModule -->
<g id="edge4" class="edge">
<title>CategoriesComponent&#45;&gt;AppModule</title>
<path fill="none" stroke="black" d="M3161,-122.28C3161,-143.32 3161,-175 3161,-175 3161,-175 1938.66,-175 1938.66,-175"/>
<polygon fill="black" stroke="black" points="1938.66,-171.5 1928.66,-175 1938.66,-178.5 1938.66,-171.5"/>
</g>
<!-- CheckoutComponent -->
<g id="node5" class="node">
<title>CheckoutComponent</title>
<polygon fill="#ffffb3" stroke="black" points="3072.49,-122 2937.51,-122 2937.51,-86 3072.49,-86 3072.49,-122"/>
<text text-anchor="middle" x="3005" y="-99.8" font-family="Times,serif" font-size="14.00">CheckoutComponent</text>
</g>
<!-- CheckoutComponent&#45;&gt;AppModule -->
<g id="edge5" class="edge">
<title>CheckoutComponent&#45;&gt;AppModule</title>
<path fill="none" stroke="black" d="M3005,-122.22C3005,-142.37 3005,-172 3005,-172 3005,-172 1938.79,-172 1938.79,-172"/>
<polygon fill="black" stroke="black" points="1938.79,-168.5 1928.79,-172 1938.79,-175.5 1938.79,-168.5"/>
</g>
<!-- FooterComponent -->
<g id="node6" class="node">
<title>FooterComponent</title>
<polygon fill="#ffffb3" stroke="black" points="2919.88,-122 2802.12,-122 2802.12,-86 2919.88,-86 2919.88,-122"/>
<text text-anchor="middle" x="2861" y="-99.8" font-family="Times,serif" font-size="14.00">FooterComponent</text>
</g>
<!-- FooterComponent&#45;&gt;AppModule -->
<g id="edge6" class="edge">
<title>FooterComponent&#45;&gt;AppModule</title>
<path fill="none" stroke="black" d="M2861,-122.11C2861,-141.34 2861,-169 2861,-169 2861,-169 1938.85,-169 1938.85,-169"/>
<polygon fill="black" stroke="black" points="1938.85,-165.5 1928.85,-169 1938.85,-172.5 1938.85,-165.5"/>
</g>
<!-- ForgotPasswordComponent -->
<g id="node7" class="node">
<title>ForgotPasswordComponent</title>
<polygon fill="#ffffb3" stroke="black" points="2784.32,-122 2611.68,-122 2611.68,-86 2784.32,-86 2784.32,-122"/>
<text text-anchor="middle" x="2698" y="-99.8" font-family="Times,serif" font-size="14.00">ForgotPasswordComponent</text>
</g>
<!-- ForgotPasswordComponent&#45;&gt;AppModule -->
<g id="edge7" class="edge">
<title>ForgotPasswordComponent&#45;&gt;AppModule</title>
<path fill="none" stroke="black" d="M2698,-122.27C2698,-140.56 2698,-166 2698,-166 2698,-166 1938.9,-166 1938.9,-166"/>
<polygon fill="black" stroke="black" points="1938.9,-162.5 1928.9,-166 1938.9,-169.5 1938.9,-162.5"/>
</g>
<!-- HomeComponent -->
<g id="node8" class="node">
<title>HomeComponent</title>
<polygon fill="#ffffb3" stroke="black" points="2593.55,-122 2478.45,-122 2478.45,-86 2593.55,-86 2593.55,-122"/>
<text text-anchor="middle" x="2536" y="-99.8" font-family="Times,serif" font-size="14.00">HomeComponent</text>
</g>
<!-- HomeComponent&#45;&gt;AppModule -->
<g id="edge8" class="edge">
<title>HomeComponent&#45;&gt;AppModule</title>
<path fill="none" stroke="black" d="M2536,-122.02C2536,-139.37 2536,-163 2536,-163 2536,-163 1939.08,-163 1939.08,-163"/>
<polygon fill="black" stroke="black" points="1939.08,-159.5 1929.08,-163 1939.08,-166.5 1939.08,-159.5"/>
</g>
<!-- LoaderComponent -->
<g id="node9" class="node">
<title>LoaderComponent</title>
<polygon fill="#ffffb3" stroke="black" points="2460.47,-122 2339.53,-122 2339.53,-86 2460.47,-86 2460.47,-122"/>
<text text-anchor="middle" x="2400" y="-99.8" font-family="Times,serif" font-size="14.00">LoaderComponent</text>
</g>
<!-- LoaderComponent&#45;&gt;AppModule -->
<g id="edge9" class="edge">
<title>LoaderComponent&#45;&gt;AppModule</title>
<path fill="none" stroke="black" d="M2400,-122.03C2400,-138.4 2400,-160 2400,-160 2400,-160 1938.98,-160 1938.98,-160"/>
<polygon fill="black" stroke="black" points="1938.98,-156.5 1928.98,-160 1938.98,-163.5 1938.98,-156.5"/>
</g>
<!-- MainsliderComponent -->
<g id="node10" class="node">
<title>MainsliderComponent</title>
<polygon fill="#ffffb3" stroke="black" points="2321.98,-122 2180.02,-122 2180.02,-86 2321.98,-86 2321.98,-122"/>
<text text-anchor="middle" x="2251" y="-99.8" font-family="Times,serif" font-size="14.00">MainsliderComponent</text>
</g>
<!-- MainsliderComponent&#45;&gt;AppModule -->
<g id="edge10" class="edge">
<title>MainsliderComponent&#45;&gt;AppModule</title>
<path fill="none" stroke="black" d="M2251,-122.24C2251,-137.57 2251,-157 2251,-157 2251,-157 1938.76,-157 1938.76,-157"/>
<polygon fill="black" stroke="black" points="1938.76,-153.5 1928.76,-157 1938.76,-160.5 1938.76,-153.5"/>
</g>
<!-- MycartComponent -->
<g id="node11" class="node">
<title>MycartComponent</title>
<polygon fill="#ffffb3" stroke="black" points="2161.76,-122 2040.24,-122 2040.24,-86 2161.76,-86 2161.76,-122"/>
<text text-anchor="middle" x="2101" y="-99.8" font-family="Times,serif" font-size="14.00">MycartComponent</text>
</g>
<!-- MycartComponent&#45;&gt;AppModule -->
<g id="edge11" class="edge">
<title>MycartComponent&#45;&gt;AppModule</title>
<path fill="none" stroke="black" d="M2101,-122.05C2101,-136.37 2101,-154 2101,-154 2101,-154 1938.77,-154 1938.77,-154"/>
<polygon fill="black" stroke="black" points="1938.77,-150.5 1928.77,-154 1938.77,-157.5 1938.77,-150.5"/>
</g>
<!-- NavbarComponent -->
<g id="node12" class="node">
<title>NavbarComponent</title>
<polygon fill="#ffffb3" stroke="black" points="2022.03,-122 1899.97,-122 1899.97,-86 2022.03,-86 2022.03,-122"/>
<text text-anchor="middle" x="1961" y="-99.8" font-family="Times,serif" font-size="14.00">NavbarComponent</text>
</g>
<!-- NavbarComponent&#45;&gt;AppModule -->
<g id="edge12" class="edge">
<title>NavbarComponent&#45;&gt;AppModule</title>
<path fill="none" stroke="black" d="M1914.28,-122.11C1914.28,-122.11 1914.28,-140.99 1914.28,-140.99"/>
<polygon fill="black" stroke="black" points="1910.78,-140.99 1914.28,-150.99 1917.78,-140.99 1910.78,-140.99"/>
</g>
<!-- NotfoundComponent -->
<g id="node13" class="node">
<title>NotfoundComponent</title>
<polygon fill="#ffffb3" stroke="black" points="1881.49,-122 1746.51,-122 1746.51,-86 1881.49,-86 1881.49,-122"/>
<text text-anchor="middle" x="1814" y="-99.8" font-family="Times,serif" font-size="14.00">NotfoundComponent</text>
</g>
<!-- NotfoundComponent&#45;&gt;AppModule -->
<g id="edge13" class="edge">
<title>NotfoundComponent&#45;&gt;AppModule</title>
<path fill="none" stroke="black" d="M1863.33,-122.11C1863.33,-122.11 1863.33,-140.99 1863.33,-140.99"/>
<polygon fill="black" stroke="black" points="1859.83,-140.99 1863.33,-150.99 1866.83,-140.99 1859.83,-140.99"/>
</g>
<!-- ProductDetailsComponent -->
<g id="node14" class="node">
<title>ProductDetailsComponent</title>
<polygon fill="#ffffb3" stroke="black" points="1728.03,-122 1563.97,-122 1563.97,-86 1728.03,-86 1728.03,-122"/>
<text text-anchor="middle" x="1646" y="-99.8" font-family="Times,serif" font-size="14.00">ProductDetailsComponent</text>
</g>
<!-- ProductDetailsComponent&#45;&gt;AppModule -->
<g id="edge14" class="edge">
<title>ProductDetailsComponent&#45;&gt;AppModule</title>
<path fill="none" stroke="black" d="M1646,-122.05C1646,-136.37 1646,-154 1646,-154 1646,-154 1835.3,-154 1835.3,-154"/>
<polygon fill="black" stroke="black" points="1835.3,-157.5 1845.3,-154 1835.3,-150.5 1835.3,-157.5"/>
</g>
<!-- ProductsComponent -->
<g id="node15" class="node">
<title>ProductsComponent</title>
<polygon fill="#ffffb3" stroke="black" points="1546.33,-122 1415.67,-122 1415.67,-86 1546.33,-86 1546.33,-122"/>
<text text-anchor="middle" x="1481" y="-99.8" font-family="Times,serif" font-size="14.00">ProductsComponent</text>
</g>
<!-- ProductsComponent&#45;&gt;AppModule -->
<g id="edge15" class="edge">
<title>ProductsComponent&#45;&gt;AppModule</title>
<path fill="none" stroke="black" d="M1481,-122.24C1481,-137.57 1481,-157 1481,-157 1481,-157 1835.08,-157 1835.08,-157"/>
<polygon fill="black" stroke="black" points="1835.08,-160.5 1845.08,-157 1835.08,-153.5 1835.08,-160.5"/>
</g>
<!-- ProfileComponent -->
<g id="node16" class="node">
<title>ProfileComponent</title>
<polygon fill="#ffffb3" stroke="black" points="1397.93,-122 1278.07,-122 1278.07,-86 1397.93,-86 1397.93,-122"/>
<text text-anchor="middle" x="1338" y="-99.8" font-family="Times,serif" font-size="14.00">ProfileComponent</text>
</g>
<!-- ProfileComponent&#45;&gt;AppModule -->
<g id="edge16" class="edge">
<title>ProfileComponent&#45;&gt;AppModule</title>
<path fill="none" stroke="black" d="M1338,-122.03C1338,-138.4 1338,-160 1338,-160 1338,-160 1835.29,-160 1835.29,-160"/>
<polygon fill="black" stroke="black" points="1835.29,-163.5 1845.29,-160 1835.29,-156.5 1835.29,-163.5"/>
</g>
<!-- ResetPasswordComponent -->
<g id="node17" class="node">
<title>ResetPasswordComponent</title>
<polygon fill="#ffffb3" stroke="black" points="1260.09,-122 1093.91,-122 1093.91,-86 1260.09,-86 1260.09,-122"/>
<text text-anchor="middle" x="1177" y="-99.8" font-family="Times,serif" font-size="14.00">ResetPasswordComponent</text>
</g>
<!-- ResetPasswordComponent&#45;&gt;AppModule -->
<g id="edge17" class="edge">
<title>ResetPasswordComponent&#45;&gt;AppModule</title>
<path fill="none" stroke="black" d="M1177,-122.02C1177,-139.37 1177,-163 1177,-163 1177,-163 1835.24,-163 1835.24,-163"/>
<polygon fill="black" stroke="black" points="1835.24,-166.5 1845.24,-163 1835.24,-159.5 1835.24,-166.5"/>
</g>
<!-- SearchPipe -->
<g id="node18" class="node">
<title>SearchPipe</title>
<polygon fill="#ffffb3" stroke="black" points="1075.47,-122 996.53,-122 996.53,-86 1075.47,-86 1075.47,-122"/>
<text text-anchor="middle" x="1036" y="-99.8" font-family="Times,serif" font-size="14.00">SearchPipe</text>
</g>
<!-- SearchPipe&#45;&gt;AppModule -->
<g id="edge18" class="edge">
<title>SearchPipe&#45;&gt;AppModule</title>
<path fill="none" stroke="black" d="M1036,-122.27C1036,-140.56 1036,-166 1036,-166 1036,-166 1835.09,-166 1835.09,-166"/>
<polygon fill="black" stroke="black" points="1835.09,-169.5 1845.09,-166 1835.09,-162.5 1835.09,-169.5"/>
</g>
<!-- SigninComponent -->
<g id="node19" class="node">
<title>SigninComponent</title>
<polygon fill="#ffffb3" stroke="black" points="978.9,-122 861.1,-122 861.1,-86 978.9,-86 978.9,-122"/>
<text text-anchor="middle" x="920" y="-99.8" font-family="Times,serif" font-size="14.00">SigninComponent</text>
</g>
<!-- SigninComponent&#45;&gt;AppModule -->
<g id="edge19" class="edge">
<title>SigninComponent&#45;&gt;AppModule</title>
<path fill="none" stroke="black" d="M920,-122.11C920,-141.34 920,-169 920,-169 920,-169 1835.14,-169 1835.14,-169"/>
<polygon fill="black" stroke="black" points="1835.14,-172.5 1845.14,-169 1835.14,-165.5 1835.14,-172.5"/>
</g>
<!-- SignupComponent -->
<g id="node20" class="node">
<title>SignupComponent</title>
<polygon fill="#ffffb3" stroke="black" points="843.51,-122 722.49,-122 722.49,-86 843.51,-86 843.51,-122"/>
<text text-anchor="middle" x="783" y="-99.8" font-family="Times,serif" font-size="14.00">SignupComponent</text>
</g>
<!-- SignupComponent&#45;&gt;AppModule -->
<g id="edge20" class="edge">
<title>SignupComponent&#45;&gt;AppModule</title>
<path fill="none" stroke="black" d="M783,-122.22C783,-142.37 783,-172 783,-172 783,-172 1835.07,-172 1835.07,-172"/>
<polygon fill="black" stroke="black" points="1835.07,-175.5 1845.07,-172 1835.07,-168.5 1835.07,-175.5"/>
</g>
<!-- WishlistComponent -->
<g id="node21" class="node">
<title>WishlistComponent</title>
<polygon fill="#ffffb3" stroke="black" points="704,-122 576,-122 576,-86 704,-86 704,-122"/>
<text text-anchor="middle" x="640" y="-99.8" font-family="Times,serif" font-size="14.00">WishlistComponent</text>
</g>
<!-- WishlistComponent&#45;&gt;AppModule -->
<g id="edge21" class="edge">
<title>WishlistComponent&#45;&gt;AppModule</title>
<path fill="none" stroke="black" d="M640,-122.28C640,-143.32 640,-175 640,-175 640,-175 1835.15,-175 1835.15,-175"/>
<polygon fill="black" stroke="black" points="1835.15,-178.5 1845.15,-175 1835.15,-171.5 1835.15,-178.5"/>
</g>
<!-- AppComponent  -->
<g id="node24" class="node">
<title>AppComponent </title>
<polygon fill="#80b1d3" stroke="black" points="1941.44,-252 1832.56,-252 1832.56,-216 1941.44,-216 1941.44,-252"/>
<text text-anchor="middle" x="1887" y="-229.8" font-family="Times,serif" font-size="14.00">AppComponent </text>
</g>
<!-- AppModule&#45;&gt;AppComponent  -->
<g id="edge23" class="edge">
<title>AppModule&#45;&gt;AppComponent </title>
<path fill="none" stroke="black" stroke-dasharray="1,5" d="M1887,-187.11C1887,-187.11 1887,-205.99 1887,-205.99"/>
<polygon fill="black" stroke="black" points="1883.5,-205.99 1887,-215.99 1890.5,-205.99 1883.5,-205.99"/>
</g>
<!-- AppRoutingModule -->
<g id="node23" class="node">
<title>AppRoutingModule</title>
<polygon fill="#8dd3c7" stroke="black" points="552.27,-122 549.27,-126 528.27,-126 525.27,-122 423.73,-122 423.73,-86 552.27,-86 552.27,-122"/>
<text text-anchor="middle" x="488" y="-99.8" font-family="Times,serif" font-size="14.00">AppRoutingModule</text>
</g>
<!-- AppRoutingModule&#45;&gt;AppModule -->
<g id="edge22" class="edge">
<title>AppRoutingModule&#45;&gt;AppModule</title>
<path fill="none" stroke="black" d="M488,-122.29C488,-144.21 488,-178 488,-178 488,-178 1835.13,-178 1835.13,-178"/>
<polygon fill="black" stroke="black" points="1835.13,-181.5 1845.13,-178 1835.13,-174.5 1835.13,-181.5"/>
</g>
<!-- AddHeaderInterceptor -->
<g id="node25" class="node">
<title>AddHeaderInterceptor</title>
<ellipse fill="#fdb462" stroke="black" cx="302" cy="-104" rx="97.79" ry="18"/>
<text text-anchor="middle" x="302" y="-99.8" font-family="Times,serif" font-size="14.00">AddHeaderInterceptor</text>
</g>
<!-- AddHeaderInterceptor&#45;&gt;AppModule -->
<g id="edge24" class="edge">
<title>AddHeaderInterceptor&#45;&gt;AppModule</title>
<path fill="none" stroke="black" d="M302,-122.25C302,-145.02 302,-181 302,-181 302,-181 1835.01,-181 1835.01,-181"/>
<polygon fill="black" stroke="black" points="1835.01,-184.5 1845.01,-181 1835.01,-177.5 1835.01,-184.5"/>
</g>
<!-- LoaderInterceptor -->
<g id="node26" class="node">
<title>LoaderInterceptor</title>
<ellipse fill="#fdb462" stroke="black" cx="105" cy="-104" rx="80.98" ry="18"/>
<text text-anchor="middle" x="105" y="-99.8" font-family="Times,serif" font-size="14.00">LoaderInterceptor</text>
</g>
<!-- LoaderInterceptor&#45;&gt;AppModule -->
<g id="edge25" class="edge">
<title>LoaderInterceptor&#45;&gt;AppModule</title>
<path fill="none" stroke="black" d="M105,-122.15C105,-145.76 105,-184 105,-184 105,-184 1835.14,-184 1835.14,-184"/>
<polygon fill="black" stroke="black" points="1835.14,-187.5 1845.14,-184 1835.14,-180.5 1835.14,-187.5"/>
</g>
<!-- ChangePasswordComponent -->
<g id="node27" class="node">
<title>ChangePasswordComponent</title>
<polygon fill="#ffffb3" stroke="black" points="3994.75,-122 3817.25,-122 3817.25,-86 3994.75,-86 3994.75,-122"/>
<text text-anchor="middle" x="3906" y="-99.8" font-family="Times,serif" font-size="14.00">ChangePasswordComponent</text>
</g>
<!-- SettingsModule -->
<g id="node28" class="node">
<title>SettingsModule</title>
<polygon fill="#8dd3c7" stroke="black" points="3864.16,-187 3861.16,-191 3840.16,-191 3837.16,-187 3759.84,-187 3759.84,-151 3864.16,-151 3864.16,-187"/>
<text text-anchor="middle" x="3812" y="-164.8" font-family="Times,serif" font-size="14.00">SettingsModule</text>
</g>
<!-- ChangePasswordComponent&#45;&gt;SettingsModule -->
<g id="edge26" class="edge">
<title>ChangePasswordComponent&#45;&gt;SettingsModule</title>
<path fill="none" stroke="black" d="M3840.73,-122.11C3840.73,-122.11 3840.73,-140.99 3840.73,-140.99"/>
<polygon fill="black" stroke="black" points="3837.23,-140.99 3840.73,-150.99 3844.23,-140.99 3837.23,-140.99"/>
</g>
<!-- SettingsRoutingModule -->
<g id="node29" class="node">
<title>SettingsRoutingModule</title>
<polygon fill="#8dd3c7" stroke="black" points="3792.78,-122 3789.78,-126 3768.78,-126 3765.78,-122 3643.22,-122 3643.22,-86 3792.78,-86 3792.78,-122"/>
<text text-anchor="middle" x="3718" y="-99.8" font-family="Times,serif" font-size="14.00">SettingsRoutingModule</text>
</g>
<!-- SettingsRoutingModule&#45;&gt;SettingsModule -->
<g id="edge27" class="edge">
<title>SettingsRoutingModule&#45;&gt;SettingsModule</title>
<path fill="none" stroke="black" d="M3776.28,-122.11C3776.28,-122.11 3776.28,-140.99 3776.28,-140.99"/>
<polygon fill="black" stroke="black" points="3772.78,-140.99 3776.28,-150.99 3779.78,-140.99 3772.78,-140.99"/>
</g>
</g>
</svg>
